REM DIRINDEX 1\2,1\3,1\4,1\5,1\6
REM DIRNAME folder01,folder02,folder03,folder04,folder05,folder06
TITLE ""
FILE "Disc2Track19.mp3" MP3
  TRACK 01 AUDIO
    TITLE "3:cjc030_02534"
    INDEX 01 00:00:00
  TRACK 02 AUDIO
    TITLE "0:"
    INDEX 01 00:01:17
  TRACK 03 AUDIO
    TITLE "4:cjc030_02535"
    INDEX 01 00:01:26
  TRACK 04 AUDIO
    TITLE "0:"
    INDEX 01 00:02:22
  TRACK 05 AUDIO
    TITLE "5:cjc030_02536"
    INDEX 01 00:02:30
  TRACK 06 AUDIO
    TITLE "0:"
    INDEX 01 00:03:49
  TRACK 07 AUDIO
    TITLE "3:cjc030_02537"
    INDEX 01 00:04:33
  TRACK 08 AUDIO
    TITLE "0:"
    INDEX 01 00:05:67
  TRACK 09 AUDIO
    TITLE "4:cjc030_02538"
    INDEX 01 00:06:00
  TRACK 10 AUDIO
    TITLE "0:"
    INDEX 01 00:08:05
  TRACK 11 AUDIO
    TITLE "5:cjc030_02539"
    INDEX 01 00:08:13
  TRACK 12 AUDIO
    TITLE "0:"
    INDEX 01 00:09:47
  TRACK 13 AUDIO
    TITLE "3:cjc030_02540"
    INDEX 01 00:10:27
  TRACK 14 AUDIO
    TITLE "0:"
    INDEX 01 00:11:50
  TRACK 15 AUDIO
    TITLE "4:cjc030_02541"
    INDEX 01 00:11:58
  TRACK 16 AUDIO
    TITLE "0:"
    INDEX 01 00:12:42
  TRACK 17 AUDIO
    TITLE "5:cjc030_02542"
    INDEX 01 00:12:52
  TRACK 18 AUDIO
    TITLE "0:"
    INDEX 01 00:13:73
  TRACK 19 AUDIO
    TITLE "3:cjc030_02543"
    INDEX 01 00:14:54
  TRACK 20 AUDIO
    TITLE "0:"
    INDEX 01 00:16:20
  TRACK 21 AUDIO
    TITLE "4:cjc030_02544"
    INDEX 01 00:16:28
  TRACK 22 AUDIO
    TITLE "0:"
    INDEX 01 00:17:33
  TRACK 23 AUDIO
    TITLE "5:cjc030_02545"
    INDEX 01 00:17:43
  TRACK 24 AUDIO
    TITLE "0:"
    INDEX 01 00:19:07
  TRACK 25 AUDIO
    TITLE "3:cjc030_02546"
    INDEX 01 00:19:63
  TRACK 26 AUDIO
    TITLE "0:"
    INDEX 01 00:21:04
  TRACK 27 AUDIO
    TITLE "4:cjc030_02547"
    INDEX 01 00:21:11
  TRACK 28 AUDIO
    TITLE "0:"
    INDEX 01 00:24:00
  TRACK 29 AUDIO
    TITLE "5:cjc030_02548"
    INDEX 01 00:24:10
  TRACK 30 AUDIO
    TITLE "0:"
    INDEX 01 00:25:25
  TRACK 31 AUDIO
    TITLE "3:cjc030_02549"
    INDEX 01 00:26:07
  TRACK 32 AUDIO
    TITLE "0:"
    INDEX 01 00:27:36
  TRACK 33 AUDIO
    TITLE "4:cjc030_02550"
    INDEX 01 00:27:45
  TRACK 34 AUDIO
    TITLE "0:"
    INDEX 01 00:28:57
  TRACK 35 AUDIO
    TITLE "5:cjc030_02551"
    INDEX 01 00:28:66
  TRACK 36 AUDIO
    TITLE "0:"
    INDEX 01 00:30:22
  TRACK 37 AUDIO
    TITLE "3:cjc030_02552"
    INDEX 01 00:31:06
  TRACK 38 AUDIO
    TITLE "0:"
    INDEX 01 00:32:19
  TRACK 39 AUDIO
    TITLE "4:cjc030_02553"
    INDEX 01 00:32:31
  TRACK 40 AUDIO
    TITLE "0:"
    INDEX 01 00:33:26
  TRACK 41 AUDIO
    TITLE "5:cjc030_02554"
    INDEX 01 00:33:36
  TRACK 42 AUDIO
    TITLE "0:"
    INDEX 01 00:34:51
  TRACK 43 AUDIO
    TITLE "6:cjc030_02555"
    INDEX 01 00:34:61
  TRACK 44 AUDIO
    TITLE "0:"
    INDEX 01 00:38:61
  TRACK 45 AUDIO
    TITLE "3:cjc030_02556"
    INDEX 01 00:39:33
  TRACK 46 AUDIO
    TITLE "0:"
    INDEX 01 00:40:62
  TRACK 47 AUDIO
    TITLE "4:cjc030_02557"
    INDEX 01 00:40:72
  TRACK 48 AUDIO
    TITLE "0:"
    INDEX 01 00:42:59
  TRACK 49 AUDIO
    TITLE "5:cjc030_02558"
    INDEX 01 00:42:66
  TRACK 50 AUDIO
    TITLE "0:"
    INDEX 01 00:44:22
  TRACK 51 AUDIO
    TITLE "6:cjc030_02559"
    INDEX 01 00:44:34
  TRACK 52 AUDIO
    TITLE "0:"
    INDEX 01 00:48:16
  TRACK 53 AUDIO
    TITLE "3:cjc030_02560"
    INDEX 01 00:48:59
  TRACK 54 AUDIO
    TITLE "0:"
    INDEX 01 00:50:19
  TRACK 55 AUDIO
    TITLE "4:cjc030_02561"
    INDEX 01 00:50:25
  TRACK 56 AUDIO
    TITLE "0:"
    INDEX 01 00:52:39
  TRACK 57 AUDIO
    TITLE "5:cjc030_02562"
    INDEX 01 00:52:49
  TRACK 58 AUDIO
    TITLE "0:"
    INDEX 01 00:54:07
  TRACK 59 AUDIO
    TITLE "6:cjc030_02563"
    INDEX 01 00:54:19
  TRACK 60 AUDIO
    TITLE "0:"
    INDEX 01 00:56:31
  TRACK 61 AUDIO
    TITLE "3:cjc030_02564"
    INDEX 01 00:57:03
  TRACK 62 AUDIO
    TITLE "0:"
    INDEX 01 00:58:17
  TRACK 63 AUDIO
    TITLE "4:cjc030_02565"
    INDEX 01 00:58:24
  TRACK 64 AUDIO
    TITLE "0:"
    INDEX 01 01:00:66
  TRACK 65 AUDIO
    TITLE "5:cjc030_02566"
    INDEX 01 01:00:72
  TRACK 66 AUDIO
    TITLE "0:"
    INDEX 01 01:02:10
  TRACK 67 AUDIO
    TITLE "6:cjc030_02567"
    INDEX 01 01:02:22
  TRACK 68 AUDIO
    TITLE "0:"
    INDEX 01 01:05:46
  TRACK 69 AUDIO
    TITLE "3:cjc030_02568"
    INDEX 01 01:06:18
  TRACK 70 AUDIO
    TITLE "0:"
    INDEX 01 01:07:47
  TRACK 71 AUDIO
    TITLE "4:cjc030_02569"
    INDEX 01 01:07:55
  TRACK 72 AUDIO
    TITLE "0:"
    INDEX 01 01:09:67
  TRACK 73 AUDIO
    TITLE "5:cjc030_02570"
    INDEX 01 01:10:02
  TRACK 74 AUDIO
    TITLE "0:"
    INDEX 01 01:11:31
  TRACK 75 AUDIO
    TITLE "6:cjc030_02571"
    INDEX 01 01:11:43
  TRACK 76 AUDIO
    TITLE "0:"
    INDEX 01 01:15:01
